<?xml version="1.0" encoding="utf-8"?>
<!-- Generator: Adobe Illustrator 19.0.0, SVG Export Plug-In . SVG Version: 6.00 Build 0)  -->
<svg version="1.1" id="Layer_1" xmlns="http://www.w3.org/2000/svg" xmlns:xlink="http://www.w3.org/1999/xlink" x="0px" y="0px"
	 viewBox="0 0 304.4 78.5" style="enable-background:new 0 0 304.4 78.5;" xml:space="preserve">
<style type="text/css">
	.st0{fill:#0060CF;}
</style>
<g id="XMLID_18_">
	<path id="XMLID_19_" class="st0" d="M0.6,6h8l5,16.8h0.1L18.6,6h6.9l4.9,16.8h0.1l5-16.8h8l-8.8,28H27l-4.9-17H22l-5,17H9.4L0.6,6z
		"/>
	<path id="XMLID_21_" class="st0" d="M54.5,11.6c6.3,0,10.3,3.9,10.3,10c0,1.1-0.1,2.4-0.3,3.2H50.9c0.4,2.7,1.8,3.9,4.3,3.9
		c2.1,0,4-0.6,5.9-1.7l3,4.5c-2.9,2.1-6.2,3-9.6,3c-6.2,0-11.2-4.2-11.2-11.5C43.3,15.8,48.5,11.6,54.5,11.6z M51,20.9h6.8
		c0-2.3-0.9-4.1-3.1-4.1C53,16.8,51.5,18,51,20.9z"/>
	<path id="XMLID_24_" class="st0" d="M68,3.8h7.6v10.6c1.5-1.8,3.6-2.8,5.8-2.8c4.9,0,8.2,3.6,8.2,11.2c0,7.7-3.4,11.6-7.9,11.6
		c-2.9,0-4.8-1.1-6.5-2.9L74.6,34H68V3.8z M78.9,28.9c2.3,0,3.2-2.6,3.2-6c0-3.6-1-5.7-3.2-5.7c-1.3,0-2.4,0.6-3.3,1.6v8.6
		C76.6,28.4,77.6,28.9,78.9,28.9z"/>
	<path id="XMLID_27_" class="st0" d="M106.9,5.5c4.2,0,7.7,1.4,10.7,3.9l-4.2,5.2c-1.7-1.4-3.5-2.6-6.3-2.6c-4.4,0-7.3,3.1-7.3,8
		c0,5,2.8,8.1,7.3,8.1c2.7,0,4.7-1.1,6.4-2.7l4.5,4.7c-3.1,2.9-6.7,4.4-11.3,4.4C98,34.5,92,28.3,92,20C92,11.8,98.2,5.5,106.9,5.5z
		"/>
	<path id="XMLID_29_" class="st0" d="M132.2,20.6v-1.2c0-1.4-0.8-2-2.4-2c-2,0-4,0.7-7.1,2.2l-2.5-5.3c3.4-1.7,6.9-2.7,10-2.7
		c6.8,0,9.4,3.2,9.4,8.1v8.2c0,0.9,0.6,1.3,1.5,1.3v4.9c-4.7,0-6.6-0.5-8.2-2.8c-1.9,2.2-3.8,3.2-6.8,3.2c-3.7,0-6.4-2.3-6.4-5.8
		C119.8,24.6,122.9,21.4,132.2,20.6z M129.2,29.4c1.3,0,2.4-0.6,3-1.5v-3.6c-2.9,0.2-5,1.2-5,3.2C127.2,28.6,128,29.4,129.2,29.4z"
		/>
	<path id="XMLID_32_" class="st0" d="M143.2,22.9c0-7.6,3.3-11.2,8.2-11.2c2.2,0,4.4,1,5.8,2.8V3.8h7.5V34h-6.6l-0.4-2.4
		c-1.7,1.8-3.7,2.9-6.6,2.9C146.7,34.4,143.2,30.6,143.2,22.9z M157.2,27.4v-8.6c-0.9-1-2-1.6-3.4-1.6c-2.2,0-3.2,2.1-3.2,5.7
		c0,3.4,1,6,3.2,6C155.2,28.9,156.3,28.4,157.2,27.4z"/>
	<path id="XMLID_35_" class="st0" d="M179.2,11.6c6.3,0,10.3,3.9,10.3,10c0,1.1-0.1,2.4-0.3,3.2h-13.6c0.4,2.7,1.8,3.9,4.3,3.9
		c2.1,0,4-0.6,5.9-1.7l3,4.5c-2.9,2.1-6.2,3-9.6,3c-6.2,0-11.2-4.2-11.2-11.5C167.9,15.8,173.1,11.6,179.2,11.6z M175.6,20.9h6.8
		c0-2.3-0.9-4.1-3.1-4.1C177.6,16.8,176.1,18,175.6,20.9z"/>
	<path id="XMLID_38_" class="st0" d="M192.6,12.1h7.2l0.3,2.1c1.7-1.5,4.1-2.6,6.1-2.6c2.9,0,4.6,1.1,5.5,3c2.2-2,4.3-3,6.9-3
		c4.5,0,6.6,3,6.6,7.8V34h-7.5V19.2c0-1.5-0.6-2.2-1.8-2.2c-1.1,0-2.2,0.6-3.2,1.8c0,0.4,0,0.9,0,1.4V34h-7.5V19.2
		c0-1.5-0.6-2.2-1.8-2.2c-1.1,0-2.4,0.8-3.2,1.9V34h-7.5V12.1z"/>
	<path id="XMLID_40_" class="st0" d="M231.8,36.6c1.5,0,2.2-0.4,2.7-2.1l0.4-0.9L227,12.1h7.4l4,12.8h0.1l4-12.8h7.2l-7.4,21.3
		c-2.6,7.2-5.3,9-9.9,9c-2.1,0-3.9-0.4-5.5-0.8l1.9-5.7C229.8,36.2,230.9,36.6,231.8,36.6z"/>
	<path id="XMLID_42_" class="st0" d="M250.4,26.8h7.2V34h-7.2V26.8z"/>
	<path id="XMLID_44_" class="st0" d="M261.2,12.1h7l0.4,3.1c1.7-3,3.8-3.8,6.1-3.8c0.8,0,1.7,0.1,2.4,0.3l-0.9,6.8
		c-0.7-0.2-1.8-0.4-3.1-0.4c-2,0-3.4,1.2-4.5,3.3V34h-7.5V12.1z"/>
	<path id="XMLID_46_" class="st0" d="M279.6,12.1h7.5v14.6c0,1.4,0.6,2.4,2.1,2.4c1.3,0,2.5-0.8,3.5-2v-15h7.5V34h-7l-0.4-2.4
		c-1.4,1.6-3.8,2.9-6.4,2.9c-4.9,0-6.8-2.9-6.8-8V12.1z"/>
</g>
<g id="XMLID_1_">
	<path id="XMLID_16_" class="st0" d="M12.4,56.5c0,1.8-0.5,3.2-1.4,4.3c-0.9,1-2.2,1.6-3.8,1.6c-1.7,0-2.9-0.5-3.9-1.5
		c-0.9-1-1.4-2.5-1.4-4.3c0-1.8,0.5-3.3,1.4-4.3c0.9-1,2.2-1.5,3.9-1.5c1.6,0,2.9,0.5,3.8,1.5C11.9,53.3,12.4,54.7,12.4,56.5z
		 M3.4,56.5c0,1.5,0.3,2.7,1,3.5c0.7,0.8,1.6,1.2,2.8,1.2c1.3,0,2.2-0.4,2.8-1.2c0.6-0.8,1-1.9,1-3.5c0-1.5-0.3-2.7-1-3.5
		c-0.6-0.8-1.6-1.2-2.8-1.2c-1.3,0-2.2,0.4-2.9,1.2S3.4,55,3.4,56.5z"/>
	<path id="XMLID_50_" class="st0" d="M25.8,58.9c0,1.1-0.3,2-1,2.5c-0.7,0.5-1.7,0.8-3,0.8h-3.3V50.9h6.7v1.2h-5.3v3.7h1.8
		c1,0,1.8,0.1,2.4,0.3s1.1,0.6,1.4,1S25.8,58.1,25.8,58.9z M19.8,61.1h1.8c1,0,1.7-0.2,2.1-0.5c0.4-0.3,0.7-0.9,0.7-1.7
		c0-0.7-0.2-1.3-0.7-1.6c-0.5-0.3-1.2-0.5-2.4-0.5h-1.6V61.1z"/>
	<path id="XMLID_53_" class="st0" d="M32.6,62.4c-0.6,0-1.1-0.1-1.5-0.2v-1.3c0.5,0.2,1,0.3,1.5,0.3c0.6,0,1-0.1,1.4-0.4
		c0.3-0.3,0.7-0.7,1-1.5l-4.4-8.4H32l3.3,6.4c0.1,0.3,0.2,0.5,0.3,0.7h0.1c0.1-0.4,0.2-0.7,0.3-0.8l2.8-6.3h1.4L36.5,59
		c-0.4,1-0.8,1.7-1.2,2.1c-0.3,0.4-0.7,0.8-1.2,1C33.7,62.3,33.2,62.4,32.6,62.4z"/>
	<path id="XMLID_55_" class="st0" d="M53.2,62.2h-1.3v-4.7c-0.8,0.3-1.4,0.5-1.9,0.6c-0.5,0.1-1,0.2-1.6,0.2c-1.1,0-1.9-0.2-2.5-0.7
		c-0.6-0.5-0.9-1.2-0.9-2.1v-4.5h1.3v4.3c0,0.6,0.2,1.1,0.5,1.4s0.9,0.4,1.6,0.4c0.5,0,1,0,1.4-0.1c0.5-0.1,1.1-0.3,2-0.5v-5.5h1.3
		V62.2z"/>
	<path id="XMLID_57_" class="st0" d="M66.3,62.2H60V50.9h6.3v1.2h-5v3.6H66v1.2h-4.7V61h5V62.2z"/>
	<path id="XMLID_59_" class="st0" d="M81,62.2h-1.3v-5.3h-6v5.3h-1.3V50.9h1.3v4.8h6v-4.8H81V62.2z"/>
	<path id="XMLID_61_" class="st0" d="M87.7,50.9H89v6.3c0,1.2,0,2.2-0.1,3.1h0.1l6.3-9.4h1.4v11.3h-1.2V56c0-1,0-2.1,0.1-3.3h-0.1
		l-6.3,9.5h-1.4V50.9z"/>
	<path id="XMLID_63_" class="st0" d="M109.7,62.2h-6.3V50.9h6.3v1.2h-5v3.6h4.7v1.2h-4.7V61h5V62.2z"/>
	<path id="XMLID_65_" class="st0" d="M123.6,50.9h3.2c1.5,0,2.6,0.2,3.3,0.7c0.7,0.4,1,1.2,1,2.1c0,0.7-0.2,1.2-0.6,1.7
		s-0.9,0.7-1.6,0.8v0.1c1.7,0.3,2.6,1.2,2.6,2.7c0,1-0.3,1.8-1,2.4c-0.7,0.6-1.6,0.8-2.9,0.8h-3.9V50.9z M124.9,55.7h2.2
		c0.9,0,1.6-0.1,2-0.4c0.4-0.3,0.6-0.8,0.6-1.5c0-0.6-0.2-1.1-0.7-1.4c-0.5-0.3-1.2-0.4-2.2-0.4h-1.9V55.7z M124.9,56.9v4.2h2.4
		c0.9,0,1.6-0.2,2.1-0.5c0.5-0.4,0.7-0.9,0.7-1.7c0-0.7-0.2-1.2-0.7-1.5c-0.5-0.3-1.2-0.5-2.2-0.5H124.9z"/>
	<path id="XMLID_69_" class="st0" d="M143.8,62.2h-6.3V50.9h6.3v1.2h-5v3.6h4.7v1.2h-4.7V61h5V62.2z"/>
	<path id="XMLID_71_" class="st0" d="M157.3,58.9c0,1.1-0.3,2-1,2.5c-0.7,0.5-1.7,0.8-3,0.8H150V50.9h6.7v1.2h-5.3v3.7h1.8
		c1,0,1.8,0.1,2.4,0.3s1.1,0.6,1.4,1S157.3,58.1,157.3,58.9z M151.3,61.1h1.8c1,0,1.7-0.2,2.1-0.5c0.4-0.3,0.7-0.9,0.7-1.7
		c0-0.7-0.2-1.3-0.7-1.6c-0.5-0.3-1.2-0.5-2.4-0.5h-1.6V61.1z"/>
	<path id="XMLID_74_" class="st0" d="M162.4,58.6v-1.2h3.8v1.2H162.4z"/>
	<path id="XMLID_76_" class="st0" d="M179.2,54.2c0,1.1-0.4,2-1.2,2.6c-0.8,0.6-1.9,0.9-3.3,0.9h-1.3v4.4H172V50.9h2.9
		C177.8,50.9,179.2,52,179.2,54.2z M173.3,56.6h1.2c1.2,0,2-0.2,2.5-0.6s0.8-1,0.8-1.8c0-0.7-0.2-1.3-0.7-1.7
		c-0.5-0.4-1.3-0.5-2.3-0.5h-1.5V56.6z"/>
	<path id="XMLID_79_" class="st0" d="M192.3,62.2l-1.4-3.6h-4.5l-1.4,3.6h-1.3l4.5-11.3h1.1l4.4,11.3H192.3z M190.5,57.4l-1.3-3.5
		c-0.2-0.4-0.3-1-0.5-1.6c-0.1,0.5-0.3,1-0.5,1.6l-1.3,3.5H190.5z"/>
	<path id="XMLID_82_" class="st0" d="M205.4,53.6c0,0.7-0.2,1.3-0.7,1.8s-1.1,0.8-2,0.9v0.1c0.9,0.1,1.7,0.4,2.1,0.9
		c0.5,0.5,0.7,1.1,0.7,1.8c0,1.1-0.4,1.9-1.2,2.5s-1.9,0.9-3.3,0.9c-1.3,0-2.4-0.2-3.2-0.6v-1.2c0.5,0.2,1,0.4,1.6,0.5
		c0.6,0.1,1.1,0.2,1.7,0.2c1,0,1.8-0.2,2.3-0.6s0.8-0.9,0.8-1.7c0-0.7-0.3-1.2-0.9-1.6c-0.6-0.4-1.4-0.5-2.6-0.5h-1.7v-1.1h1.6
		c1.1,0,1.9-0.2,2.5-0.6c0.6-0.4,0.9-0.9,0.9-1.6c0-0.6-0.2-1-0.6-1.3c-0.4-0.3-1-0.5-1.7-0.5c-0.6,0-1.1,0.1-1.5,0.2
		c-0.5,0.1-1,0.4-1.6,0.8l-0.6-0.9c0.5-0.4,1.1-0.7,1.8-0.9s1.3-0.3,2-0.3c1.2,0,2.1,0.3,2.7,0.8C205.1,52,205.4,52.7,205.4,53.6z"
		/>
	<path id="XMLID_84_" class="st0" d="M218.9,54.2c0,1.1-0.4,2-1.2,2.6c-0.8,0.6-1.9,0.9-3.3,0.9H213v4.4h-1.3V50.9h2.9
		C217.4,50.9,218.9,52,218.9,54.2z M213,56.6h1.2c1.2,0,2-0.2,2.5-0.6s0.8-1,0.8-1.8c0-0.7-0.2-1.3-0.7-1.7
		c-0.5-0.4-1.3-0.5-2.3-0.5H213V56.6z"/>
	<path id="XMLID_87_" class="st0" d="M232,62.2l-1.4-3.6H226l-1.4,3.6h-1.3l4.5-11.3h1.1l4.4,11.3H232z M230.1,57.4l-1.3-3.5
		c-0.2-0.4-0.3-1-0.5-1.6c-0.1,0.5-0.3,1-0.5,1.6l-1.3,3.5H230.1z"/>
	<path id="XMLID_90_" class="st0" d="M245.8,58.9c0,1.1-0.3,2-1,2.5c-0.7,0.5-1.7,0.8-3,0.8h-3.3V50.9h6.7v1.2h-5.3v3.7h1.8
		c1,0,1.8,0.1,2.4,0.3s1.1,0.6,1.4,1S245.8,58.1,245.8,58.9z M239.8,61.1h1.8c1,0,1.7-0.2,2.1-0.5s0.7-0.9,0.7-1.7
		c0-0.7-0.2-1.3-0.7-1.6c-0.5-0.3-1.2-0.5-2.4-0.5h-1.6V61.1z"/>
	<path id="XMLID_93_" class="st0" d="M261.7,56.5c0,1.8-0.5,3.2-1.4,4.3c-0.9,1-2.2,1.6-3.8,1.6c-1.7,0-2.9-0.5-3.9-1.5
		c-0.9-1-1.4-2.5-1.4-4.3c0-1.8,0.5-3.3,1.4-4.3c0.9-1,2.2-1.5,3.9-1.5c1.6,0,2.9,0.5,3.8,1.5C261.2,53.3,261.7,54.7,261.7,56.5z
		 M252.7,56.5c0,1.5,0.3,2.7,1,3.5c0.7,0.8,1.6,1.2,2.8,1.2c1.3,0,2.2-0.4,2.8-1.2c0.6-0.8,1-1.9,1-3.5c0-1.5-0.3-2.7-1-3.5
		c-0.6-0.8-1.6-1.2-2.8-1.2c-1.3,0-2.2,0.4-2.9,1.2C253,53.9,252.7,55,252.7,56.5z"/>
	<path id="XMLID_96_" class="st0" d="M271.3,62.2H270V52.1h-3.6v-1.2h8.5v1.2h-3.6V62.2z"/>
	<path id="XMLID_98_" class="st0" d="M288.3,62.2h-1.6l-5.2-5.7v5.7h-1.3V50.9h1.3v5.5l5.1-5.5h1.5l-5,5.5L288.3,62.2z"/>
	<path id="XMLID_100_" class="st0" d="M299.8,62.2h-6.3V50.9h6.3v1.2h-5v3.6h4.7v1.2h-4.7V61h5V62.2z"/>
</g>
</svg>
